<svg id="Capa_1" enable-background="new 0 0 512 512" height="512" viewBox="0 0 512 512" width="512" xmlns="http://www.w3.org/2000/svg"><g><g><path d="m205.879 395.03-2.19 2.18c-13.5 1.63-26.88 3.88-40.1 6.75l-8.93-8.96c-5.84-5.87-5.83-15.37.04-21.22s15.36-5.83 21.21.04l4.36 4.38 4.43-4.42c5.87-5.84 15.36-5.83 21.21.04s5.83 15.36-.03 21.21z" fill="#22bfa2"/></g><g><path d="m356.589 395.03-8.82 8.79c-13.28-2.86-26.72-5.1-40.28-6.7l-2.11-2.12c-5.85-5.87-5.84-15.37.03-21.22 5.87-5.84 15.37-5.83 21.21.04l4.37 4.38 4.42-4.42c5.87-5.84 15.37-5.83 21.21.04 5.85 5.87 5.84 15.36-.03 21.21z" fill="#28a085"/></g><circle cx="118.575" cy="213.908" fill="#22bfa2" r="105"/><circle cx="390.999" cy="213.908" fill="#28a085" r="105"/><path d="m159.179 234.51-25.6 25.61v151.47c-10.11 2.97-20.12 6.31-30 10.01v-161.48l-25.61-25.61c-5.86-5.85-5.86-15.35 0-21.21s15.36-5.86 21.21 0l19.4 19.4 19.39-19.4c5.86-5.86 15.36-5.86 21.21 0 5.86 5.86 5.86 15.36 0 21.21z" fill="#823931"/><path d="m431.609 234.51-25.61 25.61v160.59c-9.88-3.64-19.89-6.92-30-9.82v-150.77l-25.61-25.61c-5.85-5.85-5.85-15.35 0-21.21 5.86-5.86 15.36-5.86 21.22 0l19.39 19.4 19.39-19.4c5.86-5.86 15.36-5.86 21.22 0 5.85 5.86 5.85 15.36 0 21.21z" fill="#583227"/><circle cx="255.999" cy="153.408" fill="#28a085" r="135.5"/><path d="m391.499 153.41c0 69.64-52.82 127.19-120.5 134.67-7.983.891-13.439.782-15.21.83v-271h.21c74.71 0 135.5 60.78 135.5 135.5z" fill="#1b8772"/><path d="m311.234 164.67-40.24 40.23v189.45c-9.769-.333-19.438-.36-30 0v-189.01l-40.77-40.78c-5.86-5.85-5.86-15.35 0-21.21s15.35-5.86 21.21 0l34.35 34.35 34.24-34.25c5.86-5.85 15.36-5.85 21.21 0 5.86 5.86 5.86 15.36 0 21.22z" fill="#ac5743"/><path d="m311.239 164.67-40.24 40.23v189.45c-5.05-.17-10.07-.26-15.21-.26v-216.39l34.24-34.25c5.86-5.85 15.36-5.85 21.21 0 5.86 5.86 5.86 15.36 0 21.22z" fill="#823931"/><g><path d="m505.51 466.74c-150.054-103.409-348.45-103.767-499.023 0-12.071 8.32-6.184 27.352 8.512 27.352h482c14.661 0 20.609-19.013 8.511-27.352z" fill="#28a085"/></g><g><path d="m496.999 494.09h-241.21v-105c95.044.744 178.448 28.524 249.72 77.65 12.085 8.332 6.168 27.35-8.51 27.35z" fill="#1b8772"/></g></g></svg>